<?xml version="1.0" encoding="utf-8"?>
<!-- Generator: Adobe Illustrator 27.9.0, SVG Export Plug-In . SVG Version: 6.00 Build 0)  -->
<svg version="1.1" id="Layer_1" xmlns="http://www.w3.org/2000/svg" xmlns:xlink="http://www.w3.org/1999/xlink" x="0px" y="0px"
	 viewBox="0 0 602 600" style="enable-background:new 0 0 602 600;" xml:space="preserve">
<style type="text/css">
	.st0{clip-path:url(#SVGID_00000027602293483217959020000011429202152259461275_);}
	.st1{clip-path:url(#SVGID_00000114046630770161617460000012370495247675134594_);}
	.st2{fill:#DF5F18;}
	.st3{fill:#981F24;}
	.st4{clip-path:url(#SVGID_00000003093256200229380780000009385966350764214919_);}
	.st5{clip-path:url(#SVGID_00000170980444509730008380000012229705454935871136_);}
	.st6{clip-path:url(#SVGID_00000149383144660936356630000010714649489591388551_);}
	.st7{clip-path:url(#SVGID_00000097465291997906923930000008609282807080563599_);}
	.st8{clip-path:url(#SVGID_00000097479858916725962830000003601097640526038403_);}
	.st9{clip-path:url(#SVGID_00000085955408495267366200000012019389450284111538_);}
	.st10{clip-path:url(#SVGID_00000130619530427356744000000004359058242395102084_);}
	.st11{clip-path:url(#SVGID_00000183970886308507058820000010149513755126335156_);}
	.st12{clip-path:url(#SVGID_00000042003399425952647540000006247998918818159280_);}
	.st13{clip-path:url(#SVGID_00000152264635728309982490000010035795817420267439_);}
	.st14{clip-path:url(#SVGID_00000131328411646993345150000001963522587314662317_);}
	.st15{clip-path:url(#SVGID_00000039822073675157828920000008035618096399315363_);}
	.st16{clip-path:url(#SVGID_00000145738198093630447950000007775679890448906137_);}
	.st17{clip-path:url(#SVGID_00000002367260554894468450000016259515196188445059_);}
	.st18{clip-path:url(#SVGID_00000106134664154957825000000002328152049867175820_);}
	.st19{clip-path:url(#SVGID_00000144318242515196464310000009046168444523748744_);}
	.st20{clip-path:url(#SVGID_00000172413548838622932970000010998933154137219775_);}
	.st21{clip-path:url(#SVGID_00000125584983132718428260000009558378009028191635_);}
	.st22{clip-path:url(#SVGID_00000090978422488489981830000008438609541489183412_);}
	.st23{clip-path:url(#SVGID_00000160152023172155927270000000838460520667547044_);}
	.st24{clip-path:url(#SVGID_00000164500174111098695180000014157925509149948307_);}
	.st25{clip-path:url(#SVGID_00000057119173640844257920000002314359965199228596_);}
	.st26{clip-path:url(#SVGID_00000011023343790674010400000002939778302102464401_);}
	.st27{clip-path:url(#SVGID_00000150819068604272373310000000606193469297782404_);}
	.st28{clip-path:url(#SVGID_00000103226402461396659540000012118271917090114454_);}
	.st29{clip-path:url(#SVGID_00000016780202190936643260000012853360934328401591_);}
	.st30{clip-path:url(#SVGID_00000119107392924123019960000001841370261028619962_);}
	.st31{clip-path:url(#SVGID_00000118391141441872530700000015008065253795798442_);}
	.st32{clip-path:url(#SVGID_00000035505136482920626470000007796323093971396248_);}
	.st33{clip-path:url(#SVGID_00000017517002682291372070000007862271759982094761_);}
	.st34{clip-path:url(#SVGID_00000181789258720830498720000015295069336148671136_);}
	.st35{clip-path:url(#SVGID_00000065044264082610278890000005898865289040633255_);}
	.st36{clip-path:url(#SVGID_00000078024123409196351830000000012155047152203924_);}
	.st37{clip-path:url(#SVGID_00000003801825744182799520000007970848590737592234_);}
	.st38{clip-path:url(#SVGID_00000037680039070119384830000008206405422747641741_);}
	.st39{clip-path:url(#SVGID_00000156566229480711241540000009687080738827714983_);}
	.st40{clip-path:url(#SVGID_00000137852261737886634780000000935480505362381444_);}
	.st41{clip-path:url(#SVGID_00000078764086500302054020000015130143431991575692_);}
	.st42{clip-path:url(#SVGID_00000050643047972077006860000007573683690981578625_);}
</style>
<g>
	<defs>
		<rect id="SVGID_1_" width="602" height="600"/>
	</defs>
	<clipPath id="SVGID_00000002344769336383007590000016982016925639169438_">
		<use xlink:href="#SVGID_1_"  style="overflow:visible;"/>
	</clipPath>
	<g style="clip-path:url(#SVGID_00000002344769336383007590000016982016925639169438_);">
		<g>
			<g>
				<defs>
					<rect id="SVGID_00000164504319375807751800000010924086438878981815_" x="-89.79" y="209.12" width="97.7" height="181.76"/>
				</defs>
				<clipPath id="SVGID_00000070801018363784307060000018197099607075741835_">
					<use xlink:href="#SVGID_00000164504319375807751800000010924086438878981815_"  style="overflow:visible;"/>
				</clipPath>
				<g style="clip-path:url(#SVGID_00000070801018363784307060000018197099607075741835_);">
					<g>
						<polygon points="-40.94,330.24 -89.79,359.78 -89.79,390.45 -40.94,360.91 7.91,390.45 7.91,359.78 						"/>
						<polygon points="-40.94,209.12 -89.79,238.66 -89.79,269.33 -40.94,239.79 7.91,269.33 7.91,238.66 						"/>
						<polygon class="st2" points="7.91,374.98 -40.94,345.44 -89.79,374.98 -89.79,254.56 -40.94,225.02 7.91,254.56 						"/>
					</g>
					<g>
						<polygon points="-69.34,289.35 -69.34,258.21 -40.94,240.74 -12.54,258.21 -12.54,289.35 -40.94,306.83 						"/>
						<polygon class="st3" points="-26.17,281.73 -40.94,290.82 -55.71,281.73 -55.71,265.83 -40.94,256.74 -26.17,265.83 						"/>
					</g>
					<g>
						<polygon points="-118.19,341.73 -118.19,310.59 -89.79,293.12 -61.39,310.59 -61.39,341.73 -89.79,359.21 						"/>
						<polygon class="st3" points="-75.02,334.11 -89.79,343.2 -104.56,334.11 -104.56,318.21 -89.79,309.12 -75.02,318.21 						
							"/>
					</g>
					<g>
						<polygon points="-20.49,341.73 -20.49,310.59 7.91,293.12 36.31,310.59 36.31,341.73 7.91,359.21 						"/>
						<polygon class="st3" points="22.68,334.11 7.91,343.2 -6.86,334.11 -6.86,318.21 7.91,309.12 22.68,318.21 						"/>
					</g>
					<rect x="-47.75" y="290.38" width="13.63" height="70.43"/>
					<rect x="1.09" y="238.57" width="13.63" height="70.43"/>
					<rect x="-96.6" y="238.57" width="13.63" height="70.43"/>
				</g>
			</g>
			<g>
				<defs>
					<rect id="SVGID_00000137102860004558619940000008005887017253235883_" x="7.91" y="209.12" width="97.7" height="181.76"/>
				</defs>
				<clipPath id="SVGID_00000053519856930762715240000012607057502713186718_">
					<use xlink:href="#SVGID_00000137102860004558619940000008005887017253235883_"  style="overflow:visible;"/>
				</clipPath>
				<g style="clip-path:url(#SVGID_00000053519856930762715240000012607057502713186718_);">
					<g>
						<polygon points="56.76,330.24 7.91,359.78 7.91,390.45 56.76,360.91 105.61,390.45 105.61,359.78 						"/>
						<polygon points="56.76,209.12 7.91,238.66 7.91,269.33 56.76,239.79 105.61,269.33 105.61,238.66 						"/>
						<polygon class="st2" points="105.61,374.98 56.76,345.44 7.91,374.98 7.91,254.56 56.76,225.02 105.61,254.56 						"/>
					</g>
					<g>
						<polygon points="28.36,289.35 28.36,258.21 56.76,240.74 85.16,258.21 85.16,289.35 56.76,306.83 						"/>
						<polygon class="st3" points="71.53,281.73 56.76,290.82 41.99,281.73 41.99,265.83 56.76,256.74 71.53,265.83 						"/>
					</g>
					<g>
						<polygon points="-20.49,341.73 -20.49,310.59 7.91,293.12 36.31,310.59 36.31,341.73 7.91,359.21 						"/>
						<polygon class="st3" points="22.68,334.11 7.91,343.2 -6.86,334.11 -6.86,318.21 7.91,309.12 22.68,318.21 						"/>
					</g>
					<g>
						<polygon points="77.21,341.73 77.21,310.59 105.61,293.12 134.01,310.59 134.01,341.73 105.61,359.21 						"/>
						<polygon class="st3" points="120.37,334.11 105.61,343.2 90.84,334.11 90.84,318.21 105.61,309.12 120.37,318.21 						"/>
					</g>
					<rect x="49.94" y="290.38" width="13.63" height="70.43"/>
					<rect x="98.79" y="238.57" width="13.63" height="70.43"/>
					<rect x="1.09" y="238.57" width="13.63" height="70.43"/>
				</g>
			</g>
			<g>
				<defs>
					<rect id="SVGID_00000088106290178456457640000005955223033616124049_" x="105.61" y="209.12" width="97.7" height="181.76"/>
				</defs>
				<clipPath id="SVGID_00000062155410468483617880000015079040170302303382_">
					<use xlink:href="#SVGID_00000088106290178456457640000005955223033616124049_"  style="overflow:visible;"/>
				</clipPath>
				<g style="clip-path:url(#SVGID_00000062155410468483617880000015079040170302303382_);">
					<g>
						<polygon points="154.45,330.24 105.61,359.78 105.61,390.45 154.45,360.91 203.3,390.45 203.3,359.78 						"/>
						<polygon points="154.45,209.12 105.61,238.66 105.61,269.33 154.45,239.79 203.3,269.33 203.3,238.66 						"/>
						<polygon class="st2" points="203.3,374.98 154.45,345.44 105.61,374.98 105.61,254.56 154.45,225.02 203.3,254.56 						"/>
					</g>
					<g>
						<polygon points="126.05,289.35 126.05,258.21 154.45,240.74 182.86,258.21 182.86,289.35 154.45,306.83 						"/>
						<polygon class="st3" points="169.22,281.73 154.45,290.82 139.69,281.73 139.69,265.83 154.45,256.74 169.22,265.83 						"/>
					</g>
					<g>
						<polygon points="77.21,341.73 77.21,310.59 105.61,293.12 134.01,310.59 134.01,341.73 105.61,359.21 						"/>
						<polygon class="st3" points="120.37,334.11 105.61,343.2 90.84,334.11 90.84,318.21 105.61,309.12 120.37,318.21 						"/>
					</g>
					<g>
						<polygon points="174.9,341.73 174.9,310.59 203.3,293.12 231.7,310.59 231.7,341.73 203.3,359.21 						"/>
						<polygon class="st3" points="218.07,334.11 203.3,343.2 188.54,334.11 188.54,318.21 203.3,309.12 218.07,318.21 						"/>
					</g>
					<rect x="147.64" y="290.38" width="13.63" height="70.43"/>
					<rect x="196.49" y="238.57" width="13.63" height="70.43"/>
					<rect x="98.79" y="238.57" width="13.63" height="70.43"/>
				</g>
			</g>
			<g>
				<defs>
					<rect id="SVGID_00000016771138017369188260000003954621873791459993_" x="203.3" y="209.12" width="97.7" height="181.76"/>
				</defs>
				<clipPath id="SVGID_00000049904663638151266580000015962050267115987609_">
					<use xlink:href="#SVGID_00000016771138017369188260000003954621873791459993_"  style="overflow:visible;"/>
				</clipPath>
				<g style="clip-path:url(#SVGID_00000049904663638151266580000015962050267115987609_);">
					<g>
						<polygon points="252.15,330.24 203.3,359.78 203.3,390.45 252.15,360.91 301,390.45 301,359.78 						"/>
						<polygon points="252.15,209.12 203.3,238.66 203.3,269.33 252.15,239.79 301,269.33 301,238.66 						"/>
						<polygon class="st2" points="301,374.98 252.15,345.44 203.3,374.98 203.3,254.56 252.15,225.02 301,254.56 						"/>
					</g>
					<g>
						<polygon points="223.75,289.35 223.75,258.21 252.15,240.74 280.55,258.21 280.55,289.35 252.15,306.83 						"/>
						<polygon class="st3" points="266.92,281.73 252.15,290.82 237.38,281.73 237.38,265.83 252.15,256.74 266.92,265.83 						"/>
					</g>
					<g>
						<polygon points="174.9,341.73 174.9,310.59 203.3,293.12 231.7,310.59 231.7,341.73 203.3,359.21 						"/>
						<polygon class="st3" points="218.07,334.11 203.3,343.2 188.54,334.11 188.54,318.21 203.3,309.12 218.07,318.21 						"/>
					</g>
					<g>
						<polygon points="272.6,341.73 272.6,310.59 301,293.12 329.4,310.59 329.4,341.73 301,359.21 						"/>
						<polygon class="st3" points="315.77,334.11 301,343.2 286.23,334.11 286.23,318.21 301,309.12 315.77,318.21 						"/>
					</g>
					<rect x="245.34" y="290.38" width="13.63" height="70.43"/>
					<rect x="294.18" y="238.57" width="13.63" height="70.43"/>
					<rect x="196.49" y="238.57" width="13.63" height="70.43"/>
				</g>
			</g>
			<g>
				<defs>
					<rect id="SVGID_00000106856332940668363390000000014432108564851330_" x="301" y="209.12" width="97.7" height="181.76"/>
				</defs>
				<clipPath id="SVGID_00000098911109623665373990000001959460064823129508_">
					<use xlink:href="#SVGID_00000106856332940668363390000000014432108564851330_"  style="overflow:visible;"/>
				</clipPath>
				<g style="clip-path:url(#SVGID_00000098911109623665373990000001959460064823129508_);">
					<g>
						<polygon points="349.85,330.24 301,359.78 301,390.45 349.85,360.91 398.7,390.45 398.7,359.78 						"/>
						<polygon points="349.85,209.12 301,238.66 301,269.33 349.85,239.79 398.7,269.33 398.7,238.66 						"/>
						<polygon class="st2" points="398.7,374.98 349.85,345.44 301,374.98 301,254.56 349.85,225.02 398.7,254.56 						"/>
					</g>
					<g>
						<polygon points="321.45,289.35 321.45,258.21 349.85,240.74 378.25,258.21 378.25,289.35 349.85,306.83 						"/>
						<polygon class="st3" points="364.62,281.73 349.85,290.82 335.08,281.73 335.08,265.83 349.85,256.74 364.62,265.83 						"/>
					</g>
					<g>
						<polygon points="272.6,341.73 272.6,310.59 301,293.12 329.4,310.59 329.4,341.73 301,359.21 						"/>
						<polygon class="st3" points="315.77,334.11 301,343.2 286.23,334.11 286.23,318.21 301,309.12 315.77,318.21 						"/>
					</g>
					<g>
						<polygon points="370.3,341.73 370.3,310.59 398.7,293.12 427.1,310.59 427.1,341.73 398.7,359.21 						"/>
						<polygon class="st3" points="413.46,334.11 398.7,343.2 383.93,334.11 383.93,318.21 398.7,309.12 413.46,318.21 						"/>
					</g>
					<rect x="343.03" y="290.38" width="13.63" height="70.43"/>
					<rect x="391.88" y="238.57" width="13.63" height="70.43"/>
					<rect x="294.18" y="238.57" width="13.63" height="70.43"/>
				</g>
			</g>
			<g>
				<defs>
					<rect id="SVGID_00000053504720574020590120000008870405757051022994_" x="398.7" y="209.12" width="97.7" height="181.76"/>
				</defs>
				<clipPath id="SVGID_00000124861674293433195080000015332333909540547771_">
					<use xlink:href="#SVGID_00000053504720574020590120000008870405757051022994_"  style="overflow:visible;"/>
				</clipPath>
				<g style="clip-path:url(#SVGID_00000124861674293433195080000015332333909540547771_);">
					<g>
						<polygon points="447.55,330.24 398.7,359.78 398.7,390.45 447.55,360.91 496.39,390.45 496.39,359.78 						"/>
						<polygon points="447.55,209.12 398.7,238.66 398.7,269.33 447.55,239.79 496.39,269.33 496.39,238.66 						"/>
						<polygon class="st2" points="496.39,374.98 447.55,345.44 398.7,374.98 398.7,254.56 447.55,225.02 496.39,254.56 						"/>
					</g>
					<g>
						<polygon points="419.14,289.35 419.14,258.21 447.55,240.74 475.95,258.21 475.95,289.35 447.55,306.83 						"/>
						<polygon class="st3" points="462.31,281.73 447.55,290.82 432.78,281.73 432.78,265.83 447.55,256.74 462.31,265.83 						"/>
					</g>
					<g>
						<polygon points="370.3,341.73 370.3,310.59 398.7,293.12 427.1,310.59 427.1,341.73 398.7,359.21 						"/>
						<polygon class="st3" points="413.46,334.11 398.7,343.2 383.93,334.11 383.93,318.21 398.7,309.12 413.46,318.21 						"/>
					</g>
					<g>
						<polygon points="467.99,341.73 467.99,310.59 496.39,293.12 524.79,310.59 524.79,341.73 496.39,359.21 						"/>
						<polygon class="st3" points="511.16,334.11 496.39,343.2 481.63,334.11 481.63,318.21 496.39,309.12 511.16,318.21 						"/>
					</g>
					<rect x="440.73" y="290.38" width="13.63" height="70.43"/>
					<rect x="489.58" y="238.57" width="13.63" height="70.43"/>
					<rect x="391.88" y="238.57" width="13.63" height="70.43"/>
				</g>
			</g>
			<g>
				<defs>
					<rect id="SVGID_00000040533891573838764050000010236940590697372578_" x="496.39" y="209.12" width="97.7" height="181.76"/>
				</defs>
				<clipPath id="SVGID_00000070109444403423759480000018406498758687177135_">
					<use xlink:href="#SVGID_00000040533891573838764050000010236940590697372578_"  style="overflow:visible;"/>
				</clipPath>
				<g style="clip-path:url(#SVGID_00000070109444403423759480000018406498758687177135_);">
					<g>
						<polygon points="545.24,330.24 496.39,359.78 496.39,390.45 545.24,360.91 594.09,390.45 594.09,359.78 						"/>
						<polygon points="545.24,209.12 496.39,238.66 496.39,269.33 545.24,239.79 594.09,269.33 594.09,238.66 						"/>
						<polygon class="st2" points="594.09,374.98 545.24,345.44 496.39,374.98 496.39,254.56 545.24,225.02 594.09,254.56 						"/>
					</g>
					<g>
						<polygon points="516.84,289.35 516.84,258.21 545.24,240.74 573.64,258.21 573.64,289.35 545.24,306.83 						"/>
						<polygon class="st3" points="560.01,281.73 545.24,290.82 530.47,281.73 530.47,265.83 545.24,256.74 560.01,265.83 						"/>
					</g>
					<g>
						<polygon points="467.99,341.73 467.99,310.59 496.39,293.12 524.79,310.59 524.79,341.73 496.39,359.21 						"/>
						<polygon class="st3" points="511.16,334.11 496.39,343.2 481.63,334.11 481.63,318.21 496.39,309.12 511.16,318.21 						"/>
					</g>
					<g>
						<polygon points="565.69,341.73 565.69,310.59 594.09,293.12 622.49,310.59 622.49,341.73 594.09,359.21 						"/>
						<polygon class="st3" points="608.86,334.11 594.09,343.2 579.32,334.11 579.32,318.21 594.09,309.12 608.86,318.21 						"/>
					</g>
					<rect x="538.43" y="290.38" width="13.63" height="70.43"/>
					<rect x="587.27" y="238.57" width="13.63" height="70.43"/>
					<rect x="489.58" y="238.57" width="13.63" height="70.43"/>
				</g>
			</g>
			<g>
				<defs>
					<rect id="SVGID_00000125574330994601852200000014640907188600650904_" x="594.09" y="209.12" width="97.7" height="181.76"/>
				</defs>
				<clipPath id="SVGID_00000057115424908139481380000007999605294818203815_">
					<use xlink:href="#SVGID_00000125574330994601852200000014640907188600650904_"  style="overflow:visible;"/>
				</clipPath>
				<g style="clip-path:url(#SVGID_00000057115424908139481380000007999605294818203815_);">
					<g>
						<polygon points="642.94,330.24 594.09,359.78 594.09,390.45 642.94,360.91 691.79,390.45 691.79,359.78 						"/>
						<polygon points="642.94,209.12 594.09,238.66 594.09,269.33 642.94,239.79 691.79,269.33 691.79,238.66 						"/>
						<polygon class="st2" points="691.79,374.98 642.94,345.44 594.09,374.98 594.09,254.56 642.94,225.02 691.79,254.56 						"/>
					</g>
					<g>
						<polygon points="614.54,289.35 614.54,258.21 642.94,240.74 671.34,258.21 671.34,289.35 642.94,306.83 						"/>
						<polygon class="st3" points="657.71,281.73 642.94,290.82 628.17,281.73 628.17,265.83 642.94,256.74 657.71,265.83 						"/>
					</g>
					<g>
						<polygon points="565.69,341.73 565.69,310.59 594.09,293.12 622.49,310.59 622.49,341.73 594.09,359.21 						"/>
						<polygon class="st3" points="608.86,334.11 594.09,343.2 579.32,334.11 579.32,318.21 594.09,309.12 608.86,318.21 						"/>
					</g>
					<g>
						<polygon points="663.39,341.73 663.39,310.59 691.79,293.12 720.19,310.59 720.19,341.73 691.79,359.21 						"/>
						<polygon class="st3" points="706.56,334.11 691.79,343.2 677.02,334.11 677.02,318.21 691.79,309.12 706.56,318.21 						"/>
					</g>
					<rect x="636.12" y="290.38" width="13.63" height="70.43"/>
					<rect x="684.97" y="238.57" width="13.63" height="70.43"/>
					<rect x="587.27" y="238.57" width="13.63" height="70.43"/>
				</g>
			</g>
		</g>
		<g>
			<g>
				<defs>
					<rect id="SVGID_00000129182226579732046710000009288518555516873349_" x="-89.79" y="73.68" width="97.7" height="181.76"/>
				</defs>
				<clipPath id="SVGID_00000127018553829514134700000012373393307556036024_">
					<use xlink:href="#SVGID_00000129182226579732046710000009288518555516873349_"  style="overflow:visible;"/>
				</clipPath>
				<g style="clip-path:url(#SVGID_00000127018553829514134700000012373393307556036024_);">
					<g>
						<polygon points="-40.94,194.8 -89.79,224.34 -89.79,255.01 -40.94,225.47 7.91,255.01 7.91,224.34 						"/>
						<polygon points="-40.94,73.68 -89.79,103.21 -89.79,133.89 -40.94,104.35 7.91,133.89 7.91,103.21 						"/>
						<polygon class="st2" points="7.91,239.53 -40.94,210 -89.79,239.53 -89.79,119.12 -40.94,89.58 7.91,119.12 						"/>
					</g>
					<g>
						<polygon points="-69.34,153.91 -69.34,122.77 -40.94,105.29 -12.54,122.77 -12.54,153.91 -40.94,171.39 						"/>
						<polygon class="st3" points="-26.17,146.29 -40.94,155.38 -55.71,146.29 -55.71,130.39 -40.94,121.3 -26.17,130.39 						"/>
					</g>
					<g>
						<polygon points="-118.19,206.29 -118.19,175.15 -89.79,157.67 -61.39,175.15 -61.39,206.29 -89.79,223.77 						"/>
						<polygon class="st3" points="-75.02,198.67 -89.79,207.76 -104.56,198.67 -104.56,182.77 -89.79,173.68 -75.02,182.77 						
							"/>
					</g>
					<g>
						<polygon points="-20.49,206.29 -20.49,175.15 7.91,157.67 36.31,175.15 36.31,206.29 7.91,223.77 						"/>
						<polygon class="st3" points="22.68,198.67 7.91,207.76 -6.86,198.67 -6.86,182.77 7.91,173.68 22.68,182.77 						"/>
					</g>
					<rect x="-47.75" y="154.94" width="13.63" height="70.43"/>
					<rect x="1.09" y="103.12" width="13.63" height="70.43"/>
					<rect x="-96.6" y="103.12" width="13.63" height="70.43"/>
				</g>
			</g>
			<g>
				<defs>
					<rect id="SVGID_00000075129732696402120550000005568433992797913489_" x="7.91" y="73.68" width="97.7" height="181.76"/>
				</defs>
				<clipPath id="SVGID_00000168834336108749692130000000702656715363498158_">
					<use xlink:href="#SVGID_00000075129732696402120550000005568433992797913489_"  style="overflow:visible;"/>
				</clipPath>
				<g style="clip-path:url(#SVGID_00000168834336108749692130000000702656715363498158_);">
					<g>
						<polygon points="56.76,194.8 7.91,224.34 7.91,255.01 56.76,225.47 105.61,255.01 105.61,224.34 						"/>
						<polygon points="56.76,73.68 7.91,103.21 7.91,133.89 56.76,104.35 105.61,133.89 105.61,103.21 						"/>
						<polygon class="st2" points="105.61,239.53 56.76,210 7.91,239.53 7.91,119.12 56.76,89.58 105.61,119.12 						"/>
					</g>
					<g>
						<polygon points="28.36,153.91 28.36,122.77 56.76,105.29 85.16,122.77 85.16,153.91 56.76,171.39 						"/>
						<polygon class="st3" points="71.53,146.29 56.76,155.38 41.99,146.29 41.99,130.39 56.76,121.3 71.53,130.39 						"/>
					</g>
					<g>
						<polygon points="-20.49,206.29 -20.49,175.15 7.91,157.67 36.31,175.15 36.31,206.29 7.91,223.77 						"/>
						<polygon class="st3" points="22.68,198.67 7.91,207.76 -6.86,198.67 -6.86,182.77 7.91,173.68 22.68,182.77 						"/>
					</g>
					<g>
						<polygon points="77.21,206.29 77.21,175.15 105.61,157.67 134.01,175.15 134.01,206.29 105.61,223.77 						"/>
						<polygon class="st3" points="120.37,198.67 105.61,207.76 90.84,198.67 90.84,182.77 105.61,173.68 120.37,182.77 						"/>
					</g>
					<rect x="49.94" y="154.94" width="13.63" height="70.43"/>
					<rect x="98.79" y="103.12" width="13.63" height="70.43"/>
					<rect x="1.09" y="103.12" width="13.63" height="70.43"/>
				</g>
			</g>
			<g>
				<defs>
					<rect id="SVGID_00000074419260772275388210000013364419124966193030_" x="105.61" y="73.68" width="97.7" height="181.76"/>
				</defs>
				<clipPath id="SVGID_00000121981941278655093790000016925623629998234247_">
					<use xlink:href="#SVGID_00000074419260772275388210000013364419124966193030_"  style="overflow:visible;"/>
				</clipPath>
				<g style="clip-path:url(#SVGID_00000121981941278655093790000016925623629998234247_);">
					<g>
						<polygon points="154.45,194.8 105.61,224.34 105.61,255.01 154.45,225.47 203.3,255.01 203.3,224.34 						"/>
						<polygon points="154.45,73.68 105.61,103.21 105.61,133.89 154.45,104.35 203.3,133.89 203.3,103.21 						"/>
						<polygon class="st2" points="203.3,239.53 154.45,210 105.61,239.53 105.61,119.12 154.45,89.58 203.3,119.12 						"/>
					</g>
					<g>
						<polygon points="126.05,153.91 126.05,122.77 154.45,105.29 182.86,122.77 182.86,153.91 154.45,171.39 						"/>
						<polygon class="st3" points="169.22,146.29 154.45,155.38 139.69,146.29 139.69,130.39 154.45,121.3 169.22,130.39 						"/>
					</g>
					<g>
						<polygon points="77.21,206.29 77.21,175.15 105.61,157.67 134.01,175.15 134.01,206.29 105.61,223.77 						"/>
						<polygon class="st3" points="120.37,198.67 105.61,207.76 90.84,198.67 90.84,182.77 105.61,173.68 120.37,182.77 						"/>
					</g>
					<g>
						<polygon points="174.9,206.29 174.9,175.15 203.3,157.67 231.7,175.15 231.7,206.29 203.3,223.77 						"/>
						<polygon class="st3" points="218.07,198.67 203.3,207.76 188.54,198.67 188.54,182.77 203.3,173.68 218.07,182.77 						"/>
					</g>
					<rect x="147.64" y="154.94" width="13.63" height="70.43"/>
					<rect x="196.49" y="103.12" width="13.63" height="70.43"/>
					<rect x="98.79" y="103.12" width="13.63" height="70.43"/>
				</g>
			</g>
			<g>
				<defs>
					<rect id="SVGID_00000034067163375976142450000001125543972261447349_" x="203.3" y="73.68" width="97.7" height="181.76"/>
				</defs>
				<clipPath id="SVGID_00000006684862617875847450000007925932490894239385_">
					<use xlink:href="#SVGID_00000034067163375976142450000001125543972261447349_"  style="overflow:visible;"/>
				</clipPath>
				<g style="clip-path:url(#SVGID_00000006684862617875847450000007925932490894239385_);">
					<g>
						<polygon points="252.15,194.8 203.3,224.34 203.3,255.01 252.15,225.47 301,255.01 301,224.34 						"/>
						<polygon points="252.15,73.68 203.3,103.21 203.3,133.89 252.15,104.35 301,133.89 301,103.21 						"/>
						<polygon class="st2" points="301,239.53 252.15,210 203.3,239.53 203.3,119.12 252.15,89.58 301,119.12 						"/>
					</g>
					<g>
						<polygon points="223.75,153.91 223.75,122.77 252.15,105.29 280.55,122.77 280.55,153.91 252.15,171.39 						"/>
						<polygon class="st3" points="266.92,146.29 252.15,155.38 237.38,146.29 237.38,130.39 252.15,121.3 266.92,130.39 						"/>
					</g>
					<g>
						<polygon points="174.9,206.29 174.9,175.15 203.3,157.67 231.7,175.15 231.7,206.29 203.3,223.77 						"/>
						<polygon class="st3" points="218.07,198.67 203.3,207.76 188.54,198.67 188.54,182.77 203.3,173.68 218.07,182.77 						"/>
					</g>
					<g>
						<polygon points="272.6,206.29 272.6,175.15 301,157.67 329.4,175.15 329.4,206.29 301,223.77 						"/>
						<polygon class="st3" points="315.77,198.67 301,207.76 286.23,198.67 286.23,182.77 301,173.68 315.77,182.77 						"/>
					</g>
					<rect x="245.34" y="154.94" width="13.63" height="70.43"/>
					<rect x="294.18" y="103.12" width="13.63" height="70.43"/>
					<rect x="196.49" y="103.12" width="13.63" height="70.43"/>
				</g>
			</g>
			<g>
				<defs>
					<rect id="SVGID_00000013175921889358449570000015615392701629616307_" x="301" y="73.68" width="97.7" height="181.76"/>
				</defs>
				<clipPath id="SVGID_00000127734849645146433290000008188536418213201852_">
					<use xlink:href="#SVGID_00000013175921889358449570000015615392701629616307_"  style="overflow:visible;"/>
				</clipPath>
				<g style="clip-path:url(#SVGID_00000127734849645146433290000008188536418213201852_);">
					<g>
						<polygon points="349.85,194.8 301,224.34 301,255.01 349.85,225.47 398.7,255.01 398.7,224.34 						"/>
						<polygon points="349.85,73.68 301,103.21 301,133.89 349.85,104.35 398.7,133.89 398.7,103.21 						"/>
						<polygon class="st2" points="398.7,239.53 349.85,210 301,239.53 301,119.12 349.85,89.58 398.7,119.12 						"/>
					</g>
					<g>
						<polygon points="321.45,153.91 321.45,122.77 349.85,105.29 378.25,122.77 378.25,153.91 349.85,171.39 						"/>
						<polygon class="st3" points="364.62,146.29 349.85,155.38 335.08,146.29 335.08,130.39 349.85,121.3 364.62,130.39 						"/>
					</g>
					<g>
						<polygon points="272.6,206.29 272.6,175.15 301,157.67 329.4,175.15 329.4,206.29 301,223.77 						"/>
						<polygon class="st3" points="315.77,198.67 301,207.76 286.23,198.67 286.23,182.77 301,173.68 315.77,182.77 						"/>
					</g>
					<g>
						<polygon points="370.3,206.29 370.3,175.15 398.7,157.67 427.1,175.15 427.1,206.29 398.7,223.77 						"/>
						<polygon class="st3" points="413.46,198.67 398.7,207.76 383.93,198.67 383.93,182.77 398.7,173.68 413.46,182.77 						"/>
					</g>
					<rect x="343.03" y="154.94" width="13.63" height="70.43"/>
					<rect x="391.88" y="103.12" width="13.63" height="70.43"/>
					<rect x="294.18" y="103.12" width="13.63" height="70.43"/>
				</g>
			</g>
			<g>
				<defs>
					<rect id="SVGID_00000027581109296731612790000005408910232737109379_" x="398.7" y="73.68" width="97.7" height="181.76"/>
				</defs>
				<clipPath id="SVGID_00000128461721939624884270000001069438240879732363_">
					<use xlink:href="#SVGID_00000027581109296731612790000005408910232737109379_"  style="overflow:visible;"/>
				</clipPath>
				<g style="clip-path:url(#SVGID_00000128461721939624884270000001069438240879732363_);">
					<g>
						<polygon points="447.55,194.8 398.7,224.34 398.7,255.01 447.55,225.47 496.39,255.01 496.39,224.34 						"/>
						<polygon points="447.55,73.68 398.7,103.21 398.7,133.89 447.55,104.35 496.39,133.89 496.39,103.21 						"/>
						<polygon class="st2" points="496.39,239.53 447.55,210 398.7,239.53 398.7,119.12 447.55,89.58 496.39,119.12 						"/>
					</g>
					<g>
						<polygon points="419.14,153.91 419.14,122.77 447.55,105.29 475.95,122.77 475.95,153.91 447.55,171.39 						"/>
						<polygon class="st3" points="462.31,146.29 447.55,155.38 432.78,146.29 432.78,130.39 447.55,121.3 462.31,130.39 						"/>
					</g>
					<g>
						<polygon points="370.3,206.29 370.3,175.15 398.7,157.67 427.1,175.15 427.1,206.29 398.7,223.77 						"/>
						<polygon class="st3" points="413.46,198.67 398.7,207.76 383.93,198.67 383.93,182.77 398.7,173.68 413.46,182.77 						"/>
					</g>
					<g>
						<polygon points="467.99,206.29 467.99,175.15 496.39,157.67 524.79,175.15 524.79,206.29 496.39,223.77 						"/>
						<polygon class="st3" points="511.16,198.67 496.39,207.76 481.63,198.67 481.63,182.77 496.39,173.68 511.16,182.77 						"/>
					</g>
					<rect x="440.73" y="154.94" width="13.63" height="70.43"/>
					<rect x="489.58" y="103.12" width="13.63" height="70.43"/>
					<rect x="391.88" y="103.12" width="13.63" height="70.43"/>
				</g>
			</g>
			<g>
				<defs>
					<rect id="SVGID_00000084513028228558058990000003444236158020366756_" x="496.39" y="73.68" width="97.7" height="181.76"/>
				</defs>
				<clipPath id="SVGID_00000020387807439478756520000008034404290229603226_">
					<use xlink:href="#SVGID_00000084513028228558058990000003444236158020366756_"  style="overflow:visible;"/>
				</clipPath>
				<g style="clip-path:url(#SVGID_00000020387807439478756520000008034404290229603226_);">
					<g>
						<polygon points="545.24,194.8 496.39,224.34 496.39,255.01 545.24,225.47 594.09,255.01 594.09,224.34 						"/>
						<polygon points="545.24,73.68 496.39,103.21 496.39,133.89 545.24,104.35 594.09,133.89 594.09,103.21 						"/>
						<polygon class="st2" points="594.09,239.53 545.24,210 496.39,239.53 496.39,119.12 545.24,89.58 594.09,119.12 						"/>
					</g>
					<g>
						<polygon points="516.84,153.91 516.84,122.77 545.24,105.29 573.64,122.77 573.64,153.91 545.24,171.39 						"/>
						<polygon class="st3" points="560.01,146.29 545.24,155.38 530.47,146.29 530.47,130.39 545.24,121.3 560.01,130.39 						"/>
					</g>
					<g>
						<polygon points="467.99,206.29 467.99,175.15 496.39,157.67 524.79,175.15 524.79,206.29 496.39,223.77 						"/>
						<polygon class="st3" points="511.16,198.67 496.39,207.76 481.63,198.67 481.63,182.77 496.39,173.68 511.16,182.77 						"/>
					</g>
					<g>
						<polygon points="565.69,206.29 565.69,175.15 594.09,157.67 622.49,175.15 622.49,206.29 594.09,223.77 						"/>
						<polygon class="st3" points="608.86,198.67 594.09,207.76 579.32,198.67 579.32,182.77 594.09,173.68 608.86,182.77 						"/>
					</g>
					<rect x="538.43" y="154.94" width="13.63" height="70.43"/>
					<rect x="587.27" y="103.12" width="13.63" height="70.43"/>
					<rect x="489.58" y="103.12" width="13.63" height="70.43"/>
				</g>
			</g>
			<g>
				<defs>
					<rect id="SVGID_00000117667557222289803030000012704996272027745471_" x="594.09" y="73.68" width="97.7" height="181.76"/>
				</defs>
				<clipPath id="SVGID_00000039824166612327472570000004380062896103584691_">
					<use xlink:href="#SVGID_00000117667557222289803030000012704996272027745471_"  style="overflow:visible;"/>
				</clipPath>
				<g style="clip-path:url(#SVGID_00000039824166612327472570000004380062896103584691_);">
					<g>
						<polygon points="642.94,194.8 594.09,224.34 594.09,255.01 642.94,225.47 691.79,255.01 691.79,224.34 						"/>
						<polygon points="642.94,73.68 594.09,103.21 594.09,133.89 642.94,104.35 691.79,133.89 691.79,103.21 						"/>
						<polygon class="st2" points="691.79,239.53 642.94,210 594.09,239.53 594.09,119.12 642.94,89.58 691.79,119.12 						"/>
					</g>
					<g>
						<polygon points="614.54,153.91 614.54,122.77 642.94,105.29 671.34,122.77 671.34,153.91 642.94,171.39 						"/>
						<polygon class="st3" points="657.71,146.29 642.94,155.38 628.17,146.29 628.17,130.39 642.94,121.3 657.71,130.39 						"/>
					</g>
					<g>
						<polygon points="565.69,206.29 565.69,175.15 594.09,157.67 622.49,175.15 622.49,206.29 594.09,223.77 						"/>
						<polygon class="st3" points="608.86,198.67 594.09,207.76 579.32,198.67 579.32,182.77 594.09,173.68 608.86,182.77 						"/>
					</g>
					<g>
						<polygon points="663.39,206.29 663.39,175.15 691.79,157.67 720.19,175.15 720.19,206.29 691.79,223.77 						"/>
						<polygon class="st3" points="706.56,198.67 691.79,207.76 677.02,198.67 677.02,182.77 691.79,173.68 706.56,182.77 						"/>
					</g>
					<rect x="636.12" y="154.94" width="13.63" height="70.43"/>
					<rect x="684.97" y="103.12" width="13.63" height="70.43"/>
					<rect x="587.27" y="103.12" width="13.63" height="70.43"/>
				</g>
			</g>
		</g>
		<g>
			<g>
				<defs>
					<rect id="SVGID_00000032627361145131836970000002356915906614411396_" x="-89.79" y="-62.42" width="97.7" height="181.76"/>
				</defs>
				<clipPath id="SVGID_00000111164245613879899000000006905033238527217817_">
					<use xlink:href="#SVGID_00000032627361145131836970000002356915906614411396_"  style="overflow:visible;"/>
				</clipPath>
				<g style="clip-path:url(#SVGID_00000111164245613879899000000006905033238527217817_);">
					<g>
						<polygon points="-40.94,58.7 -89.79,88.24 -89.79,118.91 -40.94,89.38 7.91,118.91 7.91,88.24 						"/>
						<polygon points="-40.94,-62.42 -89.79,-32.88 -89.79,-2.21 -40.94,-31.75 7.91,-2.21 7.91,-32.88 						"/>
						<polygon class="st2" points="7.91,103.44 -40.94,73.9 -89.79,103.44 -89.79,-16.98 -40.94,-46.51 7.91,-16.98 						"/>
					</g>
					<g>
						<polygon points="-69.34,17.82 -69.34,-13.32 -40.94,-30.8 -12.54,-13.32 -12.54,17.82 -40.94,35.29 						"/>
						<polygon class="st3" points="-26.17,10.2 -40.94,19.29 -55.71,10.2 -55.71,-5.71 -40.94,-14.79 -26.17,-5.71 						"/>
					</g>
					<g>
						<polygon points="-118.19,70.2 -118.19,39.06 -89.79,21.58 -61.39,39.06 -61.39,70.2 -89.79,87.67 						"/>
						<polygon class="st3" points="-75.02,62.58 -89.79,71.67 -104.56,62.58 -104.56,46.67 -89.79,37.59 -75.02,46.67 						"/>
					</g>
					<g>
						<polygon points="-20.49,70.2 -20.49,39.06 7.91,21.58 36.31,39.06 36.31,70.2 7.91,87.67 						"/>
						<polygon class="st3" points="22.68,62.58 7.91,71.67 -6.86,62.58 -6.86,46.67 7.91,37.59 22.68,46.67 						"/>
					</g>
					<rect x="-47.75" y="18.84" width="13.63" height="70.43"/>
					<rect x="1.09" y="-32.97" width="13.63" height="70.43"/>
					<rect x="-96.6" y="-32.97" width="13.63" height="70.43"/>
				</g>
			</g>
			<g>
				<defs>
					<rect id="SVGID_00000049933663491819640320000004506222083392388226_" x="7.91" y="-62.42" width="97.7" height="181.76"/>
				</defs>
				<clipPath id="SVGID_00000052808053868160183880000002722233431705616316_">
					<use xlink:href="#SVGID_00000049933663491819640320000004506222083392388226_"  style="overflow:visible;"/>
				</clipPath>
				<g style="clip-path:url(#SVGID_00000052808053868160183880000002722233431705616316_);">
					<g>
						<polygon points="56.76,58.7 7.91,88.24 7.91,118.91 56.76,89.38 105.61,118.91 105.61,88.24 						"/>
						<polygon points="56.76,-62.42 7.91,-32.88 7.91,-2.21 56.76,-31.75 105.61,-2.21 105.61,-32.88 						"/>
						<polygon class="st2" points="105.61,103.44 56.76,73.9 7.91,103.44 7.91,-16.98 56.76,-46.51 105.61,-16.98 						"/>
					</g>
					<g>
						<polygon points="28.36,17.82 28.36,-13.32 56.76,-30.8 85.16,-13.32 85.16,17.82 56.76,35.29 						"/>
						<polygon class="st3" points="71.53,10.2 56.76,19.29 41.99,10.2 41.99,-5.71 56.76,-14.79 71.53,-5.71 						"/>
					</g>
					<g>
						<polygon points="-20.49,70.2 -20.49,39.06 7.91,21.58 36.31,39.06 36.31,70.2 7.91,87.67 						"/>
						<polygon class="st3" points="22.68,62.58 7.91,71.67 -6.86,62.58 -6.86,46.67 7.91,37.59 22.68,46.67 						"/>
					</g>
					<g>
						<polygon points="77.21,70.2 77.21,39.06 105.61,21.58 134.01,39.06 134.01,70.2 105.61,87.67 						"/>
						<polygon class="st3" points="120.37,62.58 105.61,71.67 90.84,62.58 90.84,46.67 105.61,37.59 120.37,46.67 						"/>
					</g>
					<rect x="49.94" y="18.84" width="13.63" height="70.43"/>
					<rect x="98.79" y="-32.97" width="13.63" height="70.43"/>
					<rect x="1.09" y="-32.97" width="13.63" height="70.43"/>
				</g>
			</g>
			<g>
				<defs>
					<rect id="SVGID_00000000204581658579521850000016939848817208673164_" x="105.61" y="-62.42" width="97.7" height="181.76"/>
				</defs>
				<clipPath id="SVGID_00000174584773006265483000000004258488915970514565_">
					<use xlink:href="#SVGID_00000000204581658579521850000016939848817208673164_"  style="overflow:visible;"/>
				</clipPath>
				<g style="clip-path:url(#SVGID_00000174584773006265483000000004258488915970514565_);">
					<g>
						<polygon points="154.45,58.7 105.61,88.24 105.61,118.91 154.45,89.38 203.3,118.91 203.3,88.24 						"/>
						<polygon points="154.45,-62.42 105.61,-32.88 105.61,-2.21 154.45,-31.75 203.3,-2.21 203.3,-32.88 						"/>
						<polygon class="st2" points="203.3,103.44 154.45,73.9 105.61,103.44 105.61,-16.98 154.45,-46.51 203.3,-16.98 						"/>
					</g>
					<g>
						<polygon points="126.05,17.82 126.05,-13.32 154.45,-30.8 182.86,-13.32 182.86,17.82 154.45,35.29 						"/>
						<polygon class="st3" points="169.22,10.2 154.45,19.29 139.69,10.2 139.69,-5.71 154.45,-14.79 169.22,-5.71 						"/>
					</g>
					<g>
						<polygon points="77.21,70.2 77.21,39.06 105.61,21.58 134.01,39.06 134.01,70.2 105.61,87.67 						"/>
						<polygon class="st3" points="120.37,62.58 105.61,71.67 90.84,62.58 90.84,46.67 105.61,37.59 120.37,46.67 						"/>
					</g>
					<g>
						<polygon points="174.9,70.2 174.9,39.06 203.3,21.58 231.7,39.06 231.7,70.2 203.3,87.67 						"/>
						<polygon class="st3" points="218.07,62.58 203.3,71.67 188.54,62.58 188.54,46.67 203.3,37.59 218.07,46.67 						"/>
					</g>
					<rect x="147.64" y="18.84" width="13.63" height="70.43"/>
					<rect x="196.49" y="-32.97" width="13.63" height="70.43"/>
					<rect x="98.79" y="-32.97" width="13.63" height="70.43"/>
				</g>
			</g>
			<g>
				<defs>
					<rect id="SVGID_00000120547698577756714400000001418976885774315180_" x="203.3" y="-62.42" width="97.7" height="181.76"/>
				</defs>
				<clipPath id="SVGID_00000119821543522157366330000014208729359796639385_">
					<use xlink:href="#SVGID_00000120547698577756714400000001418976885774315180_"  style="overflow:visible;"/>
				</clipPath>
				<g style="clip-path:url(#SVGID_00000119821543522157366330000014208729359796639385_);">
					<g>
						<polygon points="252.15,58.7 203.3,88.24 203.3,118.91 252.15,89.38 301,118.91 301,88.24 						"/>
						<polygon points="252.15,-62.42 203.3,-32.88 203.3,-2.21 252.15,-31.75 301,-2.21 301,-32.88 						"/>
						<polygon class="st2" points="301,103.44 252.15,73.9 203.3,103.44 203.3,-16.98 252.15,-46.51 301,-16.98 						"/>
					</g>
					<g>
						<polygon points="223.75,17.82 223.75,-13.32 252.15,-30.8 280.55,-13.32 280.55,17.82 252.15,35.29 						"/>
						<polygon class="st3" points="266.92,10.2 252.15,19.29 237.38,10.2 237.38,-5.71 252.15,-14.79 266.92,-5.71 						"/>
					</g>
					<g>
						<polygon points="174.9,70.2 174.9,39.06 203.3,21.58 231.7,39.06 231.7,70.2 203.3,87.67 						"/>
						<polygon class="st3" points="218.07,62.58 203.3,71.67 188.54,62.58 188.54,46.67 203.3,37.59 218.07,46.67 						"/>
					</g>
					<g>
						<polygon points="272.6,70.2 272.6,39.06 301,21.58 329.4,39.06 329.4,70.2 301,87.67 						"/>
						<polygon class="st3" points="315.77,62.58 301,71.67 286.23,62.58 286.23,46.67 301,37.59 315.77,46.67 						"/>
					</g>
					<rect x="245.34" y="18.84" width="13.63" height="70.43"/>
					<rect x="294.18" y="-32.97" width="13.63" height="70.43"/>
					<rect x="196.49" y="-32.97" width="13.63" height="70.43"/>
				</g>
			</g>
			<g>
				<defs>
					<rect id="SVGID_00000141418346561682367080000000799205649113826692_" x="301" y="-62.42" width="97.7" height="181.76"/>
				</defs>
				<clipPath id="SVGID_00000070115844433533543410000008897307581092927904_">
					<use xlink:href="#SVGID_00000141418346561682367080000000799205649113826692_"  style="overflow:visible;"/>
				</clipPath>
				<g style="clip-path:url(#SVGID_00000070115844433533543410000008897307581092927904_);">
					<g>
						<polygon points="349.85,58.7 301,88.24 301,118.91 349.85,89.38 398.7,118.91 398.7,88.24 						"/>
						<polygon points="349.85,-62.42 301,-32.88 301,-2.21 349.85,-31.75 398.7,-2.21 398.7,-32.88 						"/>
						<polygon class="st2" points="398.7,103.44 349.85,73.9 301,103.44 301,-16.98 349.85,-46.51 398.7,-16.98 						"/>
					</g>
					<g>
						<polygon points="321.45,17.82 321.45,-13.32 349.85,-30.8 378.25,-13.32 378.25,17.82 349.85,35.29 						"/>
						<polygon class="st3" points="364.62,10.2 349.85,19.29 335.08,10.2 335.08,-5.71 349.85,-14.79 364.62,-5.71 						"/>
					</g>
					<g>
						<polygon points="272.6,70.2 272.6,39.06 301,21.58 329.4,39.06 329.4,70.2 301,87.67 						"/>
						<polygon class="st3" points="315.77,62.58 301,71.67 286.23,62.58 286.23,46.67 301,37.59 315.77,46.67 						"/>
					</g>
					<g>
						<polygon points="370.3,70.2 370.3,39.06 398.7,21.58 427.1,39.06 427.1,70.2 398.7,87.67 						"/>
						<polygon class="st3" points="413.46,62.58 398.7,71.67 383.93,62.58 383.93,46.67 398.7,37.59 413.46,46.67 						"/>
					</g>
					<rect x="343.03" y="18.84" width="13.63" height="70.43"/>
					<rect x="391.88" y="-32.97" width="13.63" height="70.43"/>
					<rect x="294.18" y="-32.97" width="13.63" height="70.43"/>
				</g>
			</g>
			<g>
				<defs>
					<rect id="SVGID_00000143602551455104818830000015430497646243941523_" x="398.7" y="-62.42" width="97.7" height="181.76"/>
				</defs>
				<clipPath id="SVGID_00000007405001733988666030000002008474765015247252_">
					<use xlink:href="#SVGID_00000143602551455104818830000015430497646243941523_"  style="overflow:visible;"/>
				</clipPath>
				<g style="clip-path:url(#SVGID_00000007405001733988666030000002008474765015247252_);">
					<g>
						<polygon points="447.55,58.7 398.7,88.24 398.7,118.91 447.55,89.38 496.39,118.91 496.39,88.24 						"/>
						<polygon points="447.55,-62.42 398.7,-32.88 398.7,-2.21 447.55,-31.75 496.39,-2.21 496.39,-32.88 						"/>
						<polygon class="st2" points="496.39,103.44 447.55,73.9 398.7,103.44 398.7,-16.98 447.55,-46.51 496.39,-16.98 						"/>
					</g>
					<g>
						<polygon points="419.14,17.82 419.14,-13.32 447.55,-30.8 475.95,-13.32 475.95,17.82 447.55,35.29 						"/>
						<polygon class="st3" points="462.31,10.2 447.55,19.29 432.78,10.2 432.78,-5.71 447.55,-14.79 462.31,-5.71 						"/>
					</g>
					<g>
						<polygon points="370.3,70.2 370.3,39.06 398.7,21.58 427.1,39.06 427.1,70.2 398.7,87.67 						"/>
						<polygon class="st3" points="413.46,62.58 398.7,71.67 383.93,62.58 383.93,46.67 398.7,37.59 413.46,46.67 						"/>
					</g>
					<g>
						<polygon points="467.99,70.2 467.99,39.06 496.39,21.58 524.79,39.06 524.79,70.2 496.39,87.67 						"/>
						<polygon class="st3" points="511.16,62.58 496.39,71.67 481.63,62.58 481.63,46.67 496.39,37.59 511.16,46.67 						"/>
					</g>
					<rect x="440.73" y="18.84" width="13.63" height="70.43"/>
					<rect x="489.58" y="-32.97" width="13.63" height="70.43"/>
					<rect x="391.88" y="-32.97" width="13.63" height="70.43"/>
				</g>
			</g>
			<g>
				<defs>
					<rect id="SVGID_00000062893311481446975970000006489545933182825096_" x="496.39" y="-62.42" width="97.7" height="181.76"/>
				</defs>
				<clipPath id="SVGID_00000126300300294601346330000014331713038572630406_">
					<use xlink:href="#SVGID_00000062893311481446975970000006489545933182825096_"  style="overflow:visible;"/>
				</clipPath>
				<g style="clip-path:url(#SVGID_00000126300300294601346330000014331713038572630406_);">
					<g>
						<polygon points="545.24,58.7 496.39,88.24 496.39,118.91 545.24,89.38 594.09,118.91 594.09,88.24 						"/>
						<polygon points="545.24,-62.42 496.39,-32.88 496.39,-2.21 545.24,-31.75 594.09,-2.21 594.09,-32.88 						"/>
						<polygon class="st2" points="594.09,103.44 545.24,73.9 496.39,103.44 496.39,-16.98 545.24,-46.51 594.09,-16.98 						"/>
					</g>
					<g>
						<polygon points="516.84,17.82 516.84,-13.32 545.24,-30.8 573.64,-13.32 573.64,17.82 545.24,35.29 						"/>
						<polygon class="st3" points="560.01,10.2 545.24,19.29 530.47,10.2 530.47,-5.71 545.24,-14.79 560.01,-5.71 						"/>
					</g>
					<g>
						<polygon points="467.99,70.2 467.99,39.06 496.39,21.58 524.79,39.06 524.79,70.2 496.39,87.67 						"/>
						<polygon class="st3" points="511.16,62.58 496.39,71.67 481.63,62.58 481.63,46.67 496.39,37.59 511.16,46.67 						"/>
					</g>
					<g>
						<polygon points="565.69,70.2 565.69,39.06 594.09,21.58 622.49,39.06 622.49,70.2 594.09,87.67 						"/>
						<polygon class="st3" points="608.86,62.58 594.09,71.67 579.32,62.58 579.32,46.67 594.09,37.59 608.86,46.67 						"/>
					</g>
					<rect x="538.43" y="18.84" width="13.63" height="70.43"/>
					<rect x="587.27" y="-32.97" width="13.63" height="70.43"/>
					<rect x="489.58" y="-32.97" width="13.63" height="70.43"/>
				</g>
			</g>
			<g>
				<defs>
					<rect id="SVGID_00000153688165429860908420000014773914093812511383_" x="594.09" y="-62.42" width="97.7" height="181.76"/>
				</defs>
				<clipPath id="SVGID_00000173142425874891871560000017076286054165732010_">
					<use xlink:href="#SVGID_00000153688165429860908420000014773914093812511383_"  style="overflow:visible;"/>
				</clipPath>
				<g style="clip-path:url(#SVGID_00000173142425874891871560000017076286054165732010_);">
					<g>
						<polygon points="642.94,58.7 594.09,88.24 594.09,118.91 642.94,89.38 691.79,118.91 691.79,88.24 						"/>
						<polygon points="642.94,-62.42 594.09,-32.88 594.09,-2.21 642.94,-31.75 691.79,-2.21 691.79,-32.88 						"/>
						<polygon class="st2" points="691.79,103.44 642.94,73.9 594.09,103.44 594.09,-16.98 642.94,-46.51 691.79,-16.98 						"/>
					</g>
					<g>
						<polygon points="614.54,17.82 614.54,-13.32 642.94,-30.8 671.34,-13.32 671.34,17.82 642.94,35.29 						"/>
						<polygon class="st3" points="657.71,10.2 642.94,19.29 628.17,10.2 628.17,-5.71 642.94,-14.79 657.71,-5.71 						"/>
					</g>
					<g>
						<polygon points="565.69,70.2 565.69,39.06 594.09,21.58 622.49,39.06 622.49,70.2 594.09,87.67 						"/>
						<polygon class="st3" points="608.86,62.58 594.09,71.67 579.32,62.58 579.32,46.67 594.09,37.59 608.86,46.67 						"/>
					</g>
					<g>
						<polygon points="663.39,70.2 663.39,39.06 691.79,21.58 720.19,39.06 720.19,70.2 691.79,87.67 						"/>
						<polygon class="st3" points="706.56,62.58 691.79,71.67 677.02,62.58 677.02,46.67 691.79,37.59 706.56,46.67 						"/>
					</g>
					<rect x="636.12" y="18.84" width="13.63" height="70.43"/>
					<rect x="684.97" y="-32.97" width="13.63" height="70.43"/>
					<rect x="587.27" y="-32.97" width="13.63" height="70.43"/>
				</g>
			</g>
		</g>
		<g>
			<g>
				<defs>
					<rect id="SVGID_00000006668478528732258340000015036921440936382850_" x="-89.79" y="480.66" width="97.7" height="181.76"/>
				</defs>
				<clipPath id="SVGID_00000120526146112405828910000005572004068736927106_">
					<use xlink:href="#SVGID_00000006668478528732258340000015036921440936382850_"  style="overflow:visible;"/>
				</clipPath>
				<g style="clip-path:url(#SVGID_00000120526146112405828910000005572004068736927106_);">
					<g>
						<polygon points="-40.94,601.78 -89.79,631.31 -89.79,661.99 -40.94,632.45 7.91,661.99 7.91,631.31 						"/>
						<polygon points="-40.94,480.66 -89.79,510.19 -89.79,540.86 -40.94,511.33 7.91,540.86 7.91,510.19 						"/>
						<polygon class="st2" points="7.91,646.51 -40.94,616.98 -89.79,646.51 -89.79,526.1 -40.94,496.56 7.91,526.1 						"/>
					</g>
					<g>
						<polygon points="-69.34,560.89 -69.34,529.75 -40.94,512.27 -12.54,529.75 -12.54,560.89 -40.94,578.37 						"/>
						<polygon class="st3" points="-26.17,553.27 -40.94,562.36 -55.71,553.27 -55.71,537.37 -40.94,528.28 -26.17,537.37 						"/>
					</g>
					<g>
						<polygon points="-118.19,613.27 -118.19,582.13 -89.79,564.65 -61.39,582.13 -61.39,613.27 -89.79,630.75 						"/>
						<polygon class="st3" points="-75.02,605.65 -89.79,614.74 -104.56,605.65 -104.56,589.75 -89.79,580.66 -75.02,589.75 						
							"/>
					</g>
					<g>
						<polygon points="-20.49,613.27 -20.49,582.13 7.91,564.65 36.31,582.13 36.31,613.27 7.91,630.75 						"/>
						<polygon class="st3" points="22.68,605.65 7.91,614.74 -6.86,605.65 -6.86,589.75 7.91,580.66 22.68,589.75 						"/>
					</g>
					<rect x="-47.75" y="561.91" width="13.63" height="70.43"/>
					<rect x="1.09" y="510.1" width="13.63" height="70.43"/>
					<rect x="-96.6" y="510.1" width="13.63" height="70.43"/>
				</g>
			</g>
			<g>
				<defs>
					<rect id="SVGID_00000138571643790677652710000016729437632413287587_" x="7.91" y="480.66" width="97.7" height="181.76"/>
				</defs>
				<clipPath id="SVGID_00000020366285051851244420000010088531544010888378_">
					<use xlink:href="#SVGID_00000138571643790677652710000016729437632413287587_"  style="overflow:visible;"/>
				</clipPath>
				<g style="clip-path:url(#SVGID_00000020366285051851244420000010088531544010888378_);">
					<g>
						<polygon points="56.76,601.78 7.91,631.31 7.91,661.99 56.76,632.45 105.61,661.99 105.61,631.31 						"/>
						<polygon points="56.76,480.66 7.91,510.19 7.91,540.86 56.76,511.33 105.61,540.86 105.61,510.19 						"/>
						<polygon class="st2" points="105.61,646.51 56.76,616.98 7.91,646.51 7.91,526.1 56.76,496.56 105.61,526.1 						"/>
					</g>
					<g>
						<polygon points="28.36,560.89 28.36,529.75 56.76,512.27 85.16,529.75 85.16,560.89 56.76,578.37 						"/>
						<polygon class="st3" points="71.53,553.27 56.76,562.36 41.99,553.27 41.99,537.37 56.76,528.28 71.53,537.37 						"/>
					</g>
					<g>
						<polygon points="-20.49,613.27 -20.49,582.13 7.91,564.65 36.31,582.13 36.31,613.27 7.91,630.75 						"/>
						<polygon class="st3" points="22.68,605.65 7.91,614.74 -6.86,605.65 -6.86,589.75 7.91,580.66 22.68,589.75 						"/>
					</g>
					<g>
						<polygon points="77.21,613.27 77.21,582.13 105.61,564.65 134.01,582.13 134.01,613.27 105.61,630.75 						"/>
						<polygon class="st3" points="120.37,605.65 105.61,614.74 90.84,605.65 90.84,589.75 105.61,580.66 120.37,589.75 						"/>
					</g>
					<rect x="49.94" y="561.91" width="13.63" height="70.43"/>
					<rect x="98.79" y="510.1" width="13.63" height="70.43"/>
					<rect x="1.09" y="510.1" width="13.63" height="70.43"/>
				</g>
			</g>
			<g>
				<defs>
					<rect id="SVGID_00000064317328669174027280000003647451548726085786_" x="105.61" y="480.66" width="97.7" height="181.76"/>
				</defs>
				<clipPath id="SVGID_00000129899739107900501690000009182942636314725041_">
					<use xlink:href="#SVGID_00000064317328669174027280000003647451548726085786_"  style="overflow:visible;"/>
				</clipPath>
				<g style="clip-path:url(#SVGID_00000129899739107900501690000009182942636314725041_);">
					<g>
						<polygon points="154.45,601.78 105.61,631.31 105.61,661.99 154.45,632.45 203.3,661.99 203.3,631.31 						"/>
						<polygon points="154.45,480.66 105.61,510.19 105.61,540.86 154.45,511.33 203.3,540.86 203.3,510.19 						"/>
						<polygon class="st2" points="203.3,646.51 154.45,616.98 105.61,646.51 105.61,526.1 154.45,496.56 203.3,526.1 						"/>
					</g>
					<g>
						<polygon points="126.05,560.89 126.05,529.75 154.45,512.27 182.86,529.75 182.86,560.89 154.45,578.37 						"/>
						<polygon class="st3" points="169.22,553.27 154.45,562.36 139.69,553.27 139.69,537.37 154.45,528.28 169.22,537.37 						"/>
					</g>
					<g>
						<polygon points="77.21,613.27 77.21,582.13 105.61,564.65 134.01,582.13 134.01,613.27 105.61,630.75 						"/>
						<polygon class="st3" points="120.37,605.65 105.61,614.74 90.84,605.65 90.84,589.75 105.61,580.66 120.37,589.75 						"/>
					</g>
					<g>
						<polygon points="174.9,613.27 174.9,582.13 203.3,564.65 231.7,582.13 231.7,613.27 203.3,630.75 						"/>
						<polygon class="st3" points="218.07,605.65 203.3,614.74 188.54,605.65 188.54,589.75 203.3,580.66 218.07,589.75 						"/>
					</g>
					<rect x="147.64" y="561.91" width="13.63" height="70.43"/>
					<rect x="196.49" y="510.1" width="13.63" height="70.43"/>
					<rect x="98.79" y="510.1" width="13.63" height="70.43"/>
				</g>
			</g>
			<g>
				<defs>
					<rect id="SVGID_00000021108935968070429060000002060458408800542117_" x="203.3" y="480.66" width="97.7" height="181.76"/>
				</defs>
				<clipPath id="SVGID_00000039833420447902140070000011471013327013448866_">
					<use xlink:href="#SVGID_00000021108935968070429060000002060458408800542117_"  style="overflow:visible;"/>
				</clipPath>
				<g style="clip-path:url(#SVGID_00000039833420447902140070000011471013327013448866_);">
					<g>
						<polygon points="252.15,601.78 203.3,631.31 203.3,661.99 252.15,632.45 301,661.99 301,631.31 						"/>
						<polygon points="252.15,480.66 203.3,510.19 203.3,540.86 252.15,511.33 301,540.86 301,510.19 						"/>
						<polygon class="st2" points="301,646.51 252.15,616.98 203.3,646.51 203.3,526.1 252.15,496.56 301,526.1 						"/>
					</g>
					<g>
						<polygon points="223.75,560.89 223.75,529.75 252.15,512.27 280.55,529.75 280.55,560.89 252.15,578.37 						"/>
						<polygon class="st3" points="266.92,553.27 252.15,562.36 237.38,553.27 237.38,537.37 252.15,528.28 266.92,537.37 						"/>
					</g>
					<g>
						<polygon points="174.9,613.27 174.9,582.13 203.3,564.65 231.7,582.13 231.7,613.27 203.3,630.75 						"/>
						<polygon class="st3" points="218.07,605.65 203.3,614.74 188.54,605.65 188.54,589.75 203.3,580.66 218.07,589.75 						"/>
					</g>
					<g>
						<polygon points="272.6,613.27 272.6,582.13 301,564.65 329.4,582.13 329.4,613.27 301,630.75 						"/>
						<polygon class="st3" points="315.77,605.65 301,614.74 286.23,605.65 286.23,589.75 301,580.66 315.77,589.75 						"/>
					</g>
					<rect x="245.34" y="561.91" width="13.63" height="70.43"/>
					<rect x="294.18" y="510.1" width="13.63" height="70.43"/>
					<rect x="196.49" y="510.1" width="13.63" height="70.43"/>
				</g>
			</g>
			<g>
				<defs>
					<rect id="SVGID_00000102526504549139211450000005201802791023422855_" x="301" y="480.66" width="97.7" height="181.76"/>
				</defs>
				<clipPath id="SVGID_00000042013399600777638510000000182479419649530752_">
					<use xlink:href="#SVGID_00000102526504549139211450000005201802791023422855_"  style="overflow:visible;"/>
				</clipPath>
				<g style="clip-path:url(#SVGID_00000042013399600777638510000000182479419649530752_);">
					<g>
						<polygon points="349.85,601.78 301,631.31 301,661.99 349.85,632.45 398.7,661.99 398.7,631.31 						"/>
						<polygon points="349.85,480.66 301,510.19 301,540.86 349.85,511.33 398.7,540.86 398.7,510.19 						"/>
						<polygon class="st2" points="398.7,646.51 349.85,616.98 301,646.51 301,526.1 349.85,496.56 398.7,526.1 						"/>
					</g>
					<g>
						<polygon points="321.45,560.89 321.45,529.75 349.85,512.27 378.25,529.75 378.25,560.89 349.85,578.37 						"/>
						<polygon class="st3" points="364.62,553.27 349.85,562.36 335.08,553.27 335.08,537.37 349.85,528.28 364.62,537.37 						"/>
					</g>
					<g>
						<polygon points="272.6,613.27 272.6,582.13 301,564.65 329.4,582.13 329.4,613.27 301,630.75 						"/>
						<polygon class="st3" points="315.77,605.65 301,614.74 286.23,605.65 286.23,589.75 301,580.66 315.77,589.75 						"/>
					</g>
					<g>
						<polygon points="370.3,613.27 370.3,582.13 398.7,564.65 427.1,582.13 427.1,613.27 398.7,630.75 						"/>
						<polygon class="st3" points="413.46,605.65 398.7,614.74 383.93,605.65 383.93,589.75 398.7,580.66 413.46,589.75 						"/>
					</g>
					<rect x="343.03" y="561.91" width="13.63" height="70.43"/>
					<rect x="391.88" y="510.1" width="13.63" height="70.43"/>
					<rect x="294.18" y="510.1" width="13.63" height="70.43"/>
				</g>
			</g>
			<g>
				<defs>
					<rect id="SVGID_00000150063290735709524080000000528057477555915915_" x="398.7" y="480.66" width="97.7" height="181.76"/>
				</defs>
				<clipPath id="SVGID_00000166642777934621600960000016158183279249050267_">
					<use xlink:href="#SVGID_00000150063290735709524080000000528057477555915915_"  style="overflow:visible;"/>
				</clipPath>
				<g style="clip-path:url(#SVGID_00000166642777934621600960000016158183279249050267_);">
					<g>
						<polygon points="447.55,601.78 398.7,631.31 398.7,661.99 447.55,632.45 496.39,661.99 496.39,631.31 						"/>
						<polygon points="447.55,480.66 398.7,510.19 398.7,540.86 447.55,511.33 496.39,540.86 496.39,510.19 						"/>
						<polygon class="st2" points="496.39,646.51 447.55,616.98 398.7,646.51 398.7,526.1 447.55,496.56 496.39,526.1 						"/>
					</g>
					<g>
						<polygon points="419.14,560.89 419.14,529.75 447.55,512.27 475.95,529.75 475.95,560.89 447.55,578.37 						"/>
						<polygon class="st3" points="462.31,553.27 447.55,562.36 432.78,553.27 432.78,537.37 447.55,528.28 462.31,537.37 						"/>
					</g>
					<g>
						<polygon points="370.3,613.27 370.3,582.13 398.7,564.65 427.1,582.13 427.1,613.27 398.7,630.75 						"/>
						<polygon class="st3" points="413.46,605.65 398.7,614.74 383.93,605.65 383.93,589.75 398.7,580.66 413.46,589.75 						"/>
					</g>
					<g>
						<polygon points="467.99,613.27 467.99,582.13 496.39,564.65 524.79,582.13 524.79,613.27 496.39,630.75 						"/>
						<polygon class="st3" points="511.16,605.65 496.39,614.74 481.63,605.65 481.63,589.75 496.39,580.66 511.16,589.75 						"/>
					</g>
					<rect x="440.73" y="561.91" width="13.63" height="70.43"/>
					<rect x="489.58" y="510.1" width="13.63" height="70.43"/>
					<rect x="391.88" y="510.1" width="13.63" height="70.43"/>
				</g>
			</g>
			<g>
				<defs>
					<rect id="SVGID_00000062884939088087678860000013590588307353874053_" x="496.39" y="480.66" width="97.7" height="181.76"/>
				</defs>
				<clipPath id="SVGID_00000174568334050586575860000000934116043877184686_">
					<use xlink:href="#SVGID_00000062884939088087678860000013590588307353874053_"  style="overflow:visible;"/>
				</clipPath>
				<g style="clip-path:url(#SVGID_00000174568334050586575860000000934116043877184686_);">
					<g>
						<polygon points="545.24,601.78 496.39,631.31 496.39,661.99 545.24,632.45 594.09,661.99 594.09,631.31 						"/>
						<polygon points="545.24,480.66 496.39,510.19 496.39,540.86 545.24,511.33 594.09,540.86 594.09,510.19 						"/>
						<polygon class="st2" points="594.09,646.51 545.24,616.98 496.39,646.51 496.39,526.1 545.24,496.56 594.09,526.1 						"/>
					</g>
					<g>
						<polygon points="516.84,560.89 516.84,529.75 545.24,512.27 573.64,529.75 573.64,560.89 545.24,578.37 						"/>
						<polygon class="st3" points="560.01,553.27 545.24,562.36 530.47,553.27 530.47,537.37 545.24,528.28 560.01,537.37 						"/>
					</g>
					<g>
						<polygon points="467.99,613.27 467.99,582.13 496.39,564.65 524.79,582.13 524.79,613.27 496.39,630.75 						"/>
						<polygon class="st3" points="511.16,605.65 496.39,614.74 481.63,605.65 481.63,589.75 496.39,580.66 511.16,589.75 						"/>
					</g>
					<g>
						<polygon points="565.69,613.27 565.69,582.13 594.09,564.65 622.49,582.13 622.49,613.27 594.09,630.75 						"/>
						<polygon class="st3" points="608.86,605.65 594.09,614.74 579.32,605.65 579.32,589.75 594.09,580.66 608.86,589.75 						"/>
					</g>
					<rect x="538.43" y="561.91" width="13.63" height="70.43"/>
					<rect x="587.27" y="510.1" width="13.63" height="70.43"/>
					<rect x="489.58" y="510.1" width="13.63" height="70.43"/>
				</g>
			</g>
			<g>
				<defs>
					<rect id="SVGID_00000181803313586999299360000005115129515172006016_" x="594.09" y="480.66" width="97.7" height="181.76"/>
				</defs>
				<clipPath id="SVGID_00000130605607792102731260000008089647353910064569_">
					<use xlink:href="#SVGID_00000181803313586999299360000005115129515172006016_"  style="overflow:visible;"/>
				</clipPath>
				<g style="clip-path:url(#SVGID_00000130605607792102731260000008089647353910064569_);">
					<g>
						<polygon points="642.94,601.78 594.09,631.31 594.09,661.99 642.94,632.45 691.79,661.99 691.79,631.31 						"/>
						<polygon points="642.94,480.66 594.09,510.19 594.09,540.86 642.94,511.33 691.79,540.86 691.79,510.19 						"/>
						<polygon class="st2" points="691.79,646.51 642.94,616.98 594.09,646.51 594.09,526.1 642.94,496.56 691.79,526.1 						"/>
					</g>
					<g>
						<polygon points="614.54,560.89 614.54,529.75 642.94,512.27 671.34,529.75 671.34,560.89 642.94,578.37 						"/>
						<polygon class="st3" points="657.71,553.27 642.94,562.36 628.17,553.27 628.17,537.37 642.94,528.28 657.71,537.37 						"/>
					</g>
					<g>
						<polygon points="565.69,613.27 565.69,582.13 594.09,564.65 622.49,582.13 622.49,613.27 594.09,630.75 						"/>
						<polygon class="st3" points="608.86,605.65 594.09,614.74 579.32,605.65 579.32,589.75 594.09,580.66 608.86,589.75 						"/>
					</g>
					<g>
						<polygon points="663.39,613.27 663.39,582.13 691.79,564.65 720.19,582.13 720.19,613.27 691.79,630.75 						"/>
						<polygon class="st3" points="706.56,605.65 691.79,614.74 677.02,605.65 677.02,589.75 691.79,580.66 706.56,589.75 						"/>
					</g>
					<rect x="636.12" y="561.91" width="13.63" height="70.43"/>
					<rect x="684.97" y="510.1" width="13.63" height="70.43"/>
					<rect x="587.27" y="510.1" width="13.63" height="70.43"/>
				</g>
			</g>
		</g>
		<g>
			<g>
				<defs>
					<rect id="SVGID_00000063591940359937379870000003866983862776666766_" x="-89.79" y="345.21" width="97.7" height="181.76"/>
				</defs>
				<clipPath id="SVGID_00000155826950345151985100000009358796529356268696_">
					<use xlink:href="#SVGID_00000063591940359937379870000003866983862776666766_"  style="overflow:visible;"/>
				</clipPath>
				<g style="clip-path:url(#SVGID_00000155826950345151985100000009358796529356268696_);">
					<g>
						<polygon points="-40.94,466.34 -89.79,495.87 -89.79,526.54 -40.94,497.01 7.91,526.54 7.91,495.87 						"/>
						<polygon points="-40.94,345.21 -89.79,374.75 -89.79,405.42 -40.94,375.89 7.91,405.42 7.91,374.75 						"/>
						<polygon class="st2" points="7.91,511.07 -40.94,481.54 -89.79,511.07 -89.79,390.65 -40.94,361.12 7.91,390.65 						"/>
					</g>
					<g>
						<polygon points="-69.34,425.45 -69.34,394.31 -40.94,376.83 -12.54,394.31 -12.54,425.45 -40.94,442.92 						"/>
						<polygon class="st3" points="-26.17,417.83 -40.94,426.92 -55.71,417.83 -55.71,401.93 -40.94,392.84 -26.17,401.93 						"/>
					</g>
					<g>
						<polygon points="-118.19,477.83 -118.19,446.69 -89.79,429.21 -61.39,446.69 -61.39,477.83 -89.79,495.3 						"/>
						<polygon class="st3" points="-75.02,470.21 -89.79,479.3 -104.56,470.21 -104.56,454.31 -89.79,445.22 -75.02,454.31 						
							"/>
					</g>
					<g>
						<polygon points="-20.49,477.83 -20.49,446.69 7.91,429.21 36.31,446.69 36.31,477.83 7.91,495.3 						"/>
						<polygon class="st3" points="22.68,470.21 7.91,479.3 -6.86,470.21 -6.86,454.31 7.91,445.22 22.68,454.31 						"/>
					</g>
					<rect x="-47.75" y="426.47" width="13.63" height="70.43"/>
					<rect x="1.09" y="374.66" width="13.63" height="70.43"/>
					<rect x="-96.6" y="374.66" width="13.63" height="70.43"/>
				</g>
			</g>
			<g>
				<defs>
					<rect id="SVGID_00000020366243003456847660000014195515223640578186_" x="7.91" y="345.21" width="97.7" height="181.76"/>
				</defs>
				<clipPath id="SVGID_00000170966068474401430300000001289874702250781627_">
					<use xlink:href="#SVGID_00000020366243003456847660000014195515223640578186_"  style="overflow:visible;"/>
				</clipPath>
				<g style="clip-path:url(#SVGID_00000170966068474401430300000001289874702250781627_);">
					<g>
						<polygon points="56.76,466.34 7.91,495.87 7.91,526.54 56.76,497.01 105.61,526.54 105.61,495.87 						"/>
						<polygon points="56.76,345.21 7.91,374.75 7.91,405.42 56.76,375.89 105.61,405.42 105.61,374.75 						"/>
						<polygon class="st2" points="105.61,511.07 56.76,481.54 7.91,511.07 7.91,390.65 56.76,361.12 105.61,390.65 						"/>
					</g>
					<g>
						<polygon points="28.36,425.45 28.36,394.31 56.76,376.83 85.16,394.31 85.16,425.45 56.76,442.92 						"/>
						<polygon class="st3" points="71.53,417.83 56.76,426.92 41.99,417.83 41.99,401.93 56.76,392.84 71.53,401.93 						"/>
					</g>
					<g>
						<polygon points="-20.49,477.83 -20.49,446.69 7.91,429.21 36.31,446.69 36.31,477.83 7.91,495.3 						"/>
						<polygon class="st3" points="22.68,470.21 7.91,479.3 -6.86,470.21 -6.86,454.31 7.91,445.22 22.68,454.31 						"/>
					</g>
					<g>
						<polygon points="77.21,477.83 77.21,446.69 105.61,429.21 134.01,446.69 134.01,477.83 105.61,495.3 						"/>
						<polygon class="st3" points="120.37,470.21 105.61,479.3 90.84,470.21 90.84,454.31 105.61,445.22 120.37,454.31 						"/>
					</g>
					<rect x="49.94" y="426.47" width="13.63" height="70.43"/>
					<rect x="98.79" y="374.66" width="13.63" height="70.43"/>
					<rect x="1.09" y="374.66" width="13.63" height="70.43"/>
				</g>
			</g>
			<g>
				<defs>
					<rect id="SVGID_00000121258117546349323130000010703687064957604497_" x="105.61" y="345.21" width="97.7" height="181.76"/>
				</defs>
				<clipPath id="SVGID_00000026850079645711418370000006547523765818559123_">
					<use xlink:href="#SVGID_00000121258117546349323130000010703687064957604497_"  style="overflow:visible;"/>
				</clipPath>
				<g style="clip-path:url(#SVGID_00000026850079645711418370000006547523765818559123_);">
					<g>
						<polygon points="154.45,466.34 105.61,495.87 105.61,526.54 154.45,497.01 203.3,526.54 203.3,495.87 						"/>
						<polygon points="154.45,345.21 105.61,374.75 105.61,405.42 154.45,375.89 203.3,405.42 203.3,374.75 						"/>
						<polygon class="st2" points="203.3,511.07 154.45,481.54 105.61,511.07 105.61,390.65 154.45,361.12 203.3,390.65 						"/>
					</g>
					<g>
						<polygon points="126.05,425.45 126.05,394.31 154.45,376.83 182.86,394.31 182.86,425.45 154.45,442.92 						"/>
						<polygon class="st3" points="169.22,417.83 154.45,426.92 139.69,417.83 139.69,401.93 154.45,392.84 169.22,401.93 						"/>
					</g>
					<g>
						<polygon points="77.21,477.83 77.21,446.69 105.61,429.21 134.01,446.69 134.01,477.83 105.61,495.3 						"/>
						<polygon class="st3" points="120.37,470.21 105.61,479.3 90.84,470.21 90.84,454.31 105.61,445.22 120.37,454.31 						"/>
					</g>
					<g>
						<polygon points="174.9,477.83 174.9,446.69 203.3,429.21 231.7,446.69 231.7,477.83 203.3,495.3 						"/>
						<polygon class="st3" points="218.07,470.21 203.3,479.3 188.54,470.21 188.54,454.31 203.3,445.22 218.07,454.31 						"/>
					</g>
					<rect x="147.64" y="426.47" width="13.63" height="70.43"/>
					<rect x="196.49" y="374.66" width="13.63" height="70.43"/>
					<rect x="98.79" y="374.66" width="13.63" height="70.43"/>
				</g>
			</g>
			<g>
				<defs>
					<rect id="SVGID_00000098929673852115391100000007695340262117445308_" x="203.3" y="345.21" width="97.7" height="181.76"/>
				</defs>
				<clipPath id="SVGID_00000119831732712957904670000009073686881287969921_">
					<use xlink:href="#SVGID_00000098929673852115391100000007695340262117445308_"  style="overflow:visible;"/>
				</clipPath>
				<g style="clip-path:url(#SVGID_00000119831732712957904670000009073686881287969921_);">
					<g>
						<polygon points="252.15,466.34 203.3,495.87 203.3,526.54 252.15,497.01 301,526.54 301,495.87 						"/>
						<polygon points="252.15,345.21 203.3,374.75 203.3,405.42 252.15,375.89 301,405.42 301,374.75 						"/>
						<polygon class="st2" points="301,511.07 252.15,481.54 203.3,511.07 203.3,390.65 252.15,361.12 301,390.65 						"/>
					</g>
					<g>
						<polygon points="223.75,425.45 223.75,394.31 252.15,376.83 280.55,394.31 280.55,425.45 252.15,442.92 						"/>
						<polygon class="st3" points="266.92,417.83 252.15,426.92 237.38,417.83 237.38,401.93 252.15,392.84 266.92,401.93 						"/>
					</g>
					<g>
						<polygon points="174.9,477.83 174.9,446.69 203.3,429.21 231.7,446.69 231.7,477.83 203.3,495.3 						"/>
						<polygon class="st3" points="218.07,470.21 203.3,479.3 188.54,470.21 188.54,454.31 203.3,445.22 218.07,454.31 						"/>
					</g>
					<g>
						<polygon points="272.6,477.83 272.6,446.69 301,429.21 329.4,446.69 329.4,477.83 301,495.3 						"/>
						<polygon class="st3" points="315.77,470.21 301,479.3 286.23,470.21 286.23,454.31 301,445.22 315.77,454.31 						"/>
					</g>
					<rect x="245.34" y="426.47" width="13.63" height="70.43"/>
					<rect x="294.18" y="374.66" width="13.63" height="70.43"/>
					<rect x="196.49" y="374.66" width="13.63" height="70.43"/>
				</g>
			</g>
			<g>
				<defs>
					<rect id="SVGID_00000082343008324925824030000014246886039924462999_" x="301" y="345.21" width="97.7" height="181.76"/>
				</defs>
				<clipPath id="SVGID_00000052089238268901556100000012611873301565567637_">
					<use xlink:href="#SVGID_00000082343008324925824030000014246886039924462999_"  style="overflow:visible;"/>
				</clipPath>
				<g style="clip-path:url(#SVGID_00000052089238268901556100000012611873301565567637_);">
					<g>
						<polygon points="349.85,466.34 301,495.87 301,526.54 349.85,497.01 398.7,526.54 398.7,495.87 						"/>
						<polygon points="349.85,345.21 301,374.75 301,405.42 349.85,375.89 398.7,405.42 398.7,374.75 						"/>
						<polygon class="st2" points="398.7,511.07 349.85,481.54 301,511.07 301,390.65 349.85,361.12 398.7,390.65 						"/>
					</g>
					<g>
						<polygon points="321.45,425.45 321.45,394.31 349.85,376.83 378.25,394.31 378.25,425.45 349.85,442.92 						"/>
						<polygon class="st3" points="364.62,417.83 349.85,426.92 335.08,417.83 335.08,401.93 349.85,392.84 364.62,401.93 						"/>
					</g>
					<g>
						<polygon points="272.6,477.83 272.6,446.69 301,429.21 329.4,446.69 329.4,477.83 301,495.3 						"/>
						<polygon class="st3" points="315.77,470.21 301,479.3 286.23,470.21 286.23,454.31 301,445.22 315.77,454.31 						"/>
					</g>
					<g>
						<polygon points="370.3,477.83 370.3,446.69 398.7,429.21 427.1,446.69 427.1,477.83 398.7,495.3 						"/>
						<polygon class="st3" points="413.46,470.21 398.7,479.3 383.93,470.21 383.93,454.31 398.7,445.22 413.46,454.31 						"/>
					</g>
					<rect x="343.03" y="426.47" width="13.63" height="70.43"/>
					<rect x="391.88" y="374.66" width="13.63" height="70.43"/>
					<rect x="294.18" y="374.66" width="13.63" height="70.43"/>
				</g>
			</g>
			<g>
				<defs>
					<rect id="SVGID_00000150809274316431960150000008035506191034843566_" x="398.7" y="345.21" width="97.7" height="181.76"/>
				</defs>
				<clipPath id="SVGID_00000036937461911039959110000009608977993962283653_">
					<use xlink:href="#SVGID_00000150809274316431960150000008035506191034843566_"  style="overflow:visible;"/>
				</clipPath>
				<g style="clip-path:url(#SVGID_00000036937461911039959110000009608977993962283653_);">
					<g>
						<polygon points="447.55,466.34 398.7,495.87 398.7,526.54 447.55,497.01 496.39,526.54 496.39,495.87 						"/>
						<polygon points="447.55,345.21 398.7,374.75 398.7,405.42 447.55,375.89 496.39,405.42 496.39,374.75 						"/>
						<polygon class="st2" points="496.39,511.07 447.55,481.54 398.7,511.07 398.7,390.65 447.55,361.12 496.39,390.65 						"/>
					</g>
					<g>
						<polygon points="419.14,425.45 419.14,394.31 447.55,376.83 475.95,394.31 475.95,425.45 447.55,442.92 						"/>
						<polygon class="st3" points="462.31,417.83 447.55,426.92 432.78,417.83 432.78,401.93 447.55,392.84 462.31,401.93 						"/>
					</g>
					<g>
						<polygon points="370.3,477.83 370.3,446.69 398.7,429.21 427.1,446.69 427.1,477.83 398.7,495.3 						"/>
						<polygon class="st3" points="413.46,470.21 398.7,479.3 383.93,470.21 383.93,454.31 398.7,445.22 413.46,454.31 						"/>
					</g>
					<g>
						<polygon points="467.99,477.83 467.99,446.69 496.39,429.21 524.79,446.69 524.79,477.83 496.39,495.3 						"/>
						<polygon class="st3" points="511.16,470.21 496.39,479.3 481.63,470.21 481.63,454.31 496.39,445.22 511.16,454.31 						"/>
					</g>
					<rect x="440.73" y="426.47" width="13.63" height="70.43"/>
					<rect x="489.58" y="374.66" width="13.63" height="70.43"/>
					<rect x="391.88" y="374.66" width="13.63" height="70.43"/>
				</g>
			</g>
			<g>
				<defs>
					<rect id="SVGID_00000052100751815996444350000004245648913219789223_" x="496.39" y="345.21" width="97.7" height="181.76"/>
				</defs>
				<clipPath id="SVGID_00000012443301299931542600000017958838570906539675_">
					<use xlink:href="#SVGID_00000052100751815996444350000004245648913219789223_"  style="overflow:visible;"/>
				</clipPath>
				<g style="clip-path:url(#SVGID_00000012443301299931542600000017958838570906539675_);">
					<g>
						<polygon points="545.24,466.34 496.39,495.87 496.39,526.54 545.24,497.01 594.09,526.54 594.09,495.87 						"/>
						<polygon points="545.24,345.21 496.39,374.75 496.39,405.42 545.24,375.89 594.09,405.42 594.09,374.75 						"/>
						<polygon class="st2" points="594.09,511.07 545.24,481.54 496.39,511.07 496.39,390.65 545.24,361.12 594.09,390.65 						"/>
					</g>
					<g>
						<polygon points="516.84,425.45 516.84,394.31 545.24,376.83 573.64,394.31 573.64,425.45 545.24,442.92 						"/>
						<polygon class="st3" points="560.01,417.83 545.24,426.92 530.47,417.83 530.47,401.93 545.24,392.84 560.01,401.93 						"/>
					</g>
					<g>
						<polygon points="467.99,477.83 467.99,446.69 496.39,429.21 524.79,446.69 524.79,477.83 496.39,495.3 						"/>
						<polygon class="st3" points="511.16,470.21 496.39,479.3 481.63,470.21 481.63,454.31 496.39,445.22 511.16,454.31 						"/>
					</g>
					<g>
						<polygon points="565.69,477.83 565.69,446.69 594.09,429.21 622.49,446.69 622.49,477.83 594.09,495.3 						"/>
						<polygon class="st3" points="608.86,470.21 594.09,479.3 579.32,470.21 579.32,454.31 594.09,445.22 608.86,454.31 						"/>
					</g>
					<rect x="538.43" y="426.47" width="13.63" height="70.43"/>
					<rect x="587.27" y="374.66" width="13.63" height="70.43"/>
					<rect x="489.58" y="374.66" width="13.63" height="70.43"/>
				</g>
			</g>
			<g>
				<defs>
					<rect id="SVGID_00000170972724576939516110000000223355448069671559_" x="594.09" y="345.21" width="97.7" height="181.76"/>
				</defs>
				<clipPath id="SVGID_00000062905448487020111180000001306957437513572017_">
					<use xlink:href="#SVGID_00000170972724576939516110000000223355448069671559_"  style="overflow:visible;"/>
				</clipPath>
				<g style="clip-path:url(#SVGID_00000062905448487020111180000001306957437513572017_);">
					<g>
						<polygon points="642.94,466.34 594.09,495.87 594.09,526.54 642.94,497.01 691.79,526.54 691.79,495.87 						"/>
						<polygon points="642.94,345.21 594.09,374.75 594.09,405.42 642.94,375.89 691.79,405.42 691.79,374.75 						"/>
						<polygon class="st2" points="691.79,511.07 642.94,481.54 594.09,511.07 594.09,390.65 642.94,361.12 691.79,390.65 						"/>
					</g>
					<g>
						<polygon points="614.54,425.45 614.54,394.31 642.94,376.83 671.34,394.31 671.34,425.45 642.94,442.92 						"/>
						<polygon class="st3" points="657.71,417.83 642.94,426.92 628.17,417.83 628.17,401.93 642.94,392.84 657.71,401.93 						"/>
					</g>
					<g>
						<polygon points="565.69,477.83 565.69,446.69 594.09,429.21 622.49,446.69 622.49,477.83 594.09,495.3 						"/>
						<polygon class="st3" points="608.86,470.21 594.09,479.3 579.32,470.21 579.32,454.31 594.09,445.22 608.86,454.31 						"/>
					</g>
					<g>
						<polygon points="663.39,477.83 663.39,446.69 691.79,429.21 720.19,446.69 720.19,477.83 691.79,495.3 						"/>
						<polygon class="st3" points="706.56,470.21 691.79,479.3 677.02,470.21 677.02,454.31 691.79,445.22 706.56,454.31 						"/>
					</g>
					<rect x="636.12" y="426.47" width="13.63" height="70.43"/>
					<rect x="684.97" y="374.66" width="13.63" height="70.43"/>
					<rect x="587.27" y="374.66" width="13.63" height="70.43"/>
				</g>
			</g>
		</g>
	</g>
</g>
</svg>
